<?xml version="1.0" encoding="utf-8"?>
<svg viewBox="0 0 254.019 254.019" xmlns="http://www.w3.org/2000/svg" xmlns:xlink="http://www.w3.org/1999/xlink" xmlns:bx="https://boxy-svg.com">
  <defs>
    <linearGradient id="gradient-1-0" gradientUnits="userSpaceOnUse" x1="290.151" y1="-169.689" x2="290.151" y2="714.602" xlink:href="#gradient-1"/>
    <linearGradient id="gradient-1" bx:pinned="true">
      <stop offset="0.34" style="stop-color: rgb(158, 191, 36);"/>
      <stop offset="1" style="stop-color: rgb(17, 89, 42);"/>
    </linearGradient>
  </defs>
  <g style="fill: rgb(2, 115, 51);" id="layer1" transform="matrix(0.27602800726890564, 0, 0, 0.27602800726890564, 43.61660068655908, 52.45699007000013)">
    <path id="path3239" d="M 104.933 704.4 C 131.119 698.919 155.606 694.375 159.336 694.281 C 163.078 694.201 169.441 692.757 173.478 691.06 C 181.952 687.531 188.008 689.603 196.896 699.12 C 203.272 705.937 211.145 706.07 235.633 699.748 C 249.04 696.286 256.339 695.417 262.741 696.527 C 277.324 699.053 293.351 699.761 297.909 698.077 C 300.382 697.168 303.283 693.158 304.766 688.587 C 306.183 684.242 311.49 672.373 316.556 662.201 C 332.315 630.668 341.806 618.117 334.721 638.181 C 332.997 643.059 331.594 652.75 331.607 659.728 C 331.62 677.92 335.617 683.347 354.624 690.846 C 363.019 694.161 375.33 700.537 381.986 705.028 C 396.128 714.558 397.385 714.518 422.675 703.571 C 454.474 689.803 464.874 686.314 484.777 682.705 C 495.591 680.74 506.07 678.294 508.062 677.252 C 513.288 674.525 512.593 667.641 504.439 641.496 C 499.119 624.44 495.283 616.072 489.99 609.87 C 483.079 601.81 477.492 591.009 479.296 589.205 C 479.764 588.737 481.088 590.969 482.237 594.15 C 483.387 597.345 490.03 606.475 497.007 614.441 C 509.118 628.262 517.419 642.792 526.428 665.997 C 536.012 690.672 539.086 695.123 546.959 695.791 C 554.043 696.38 588.45 685.74 593.957 681.248 C 597.713 678.187 597.191 670.595 591.457 645.211 C 584.186 613.011 578.465 595.607 573.185 589.699 C 566.822 582.548 517.566 547.166 513.997 547.166 C 510.896 547.166 496.967 557.686 484.496 569.435 C 475.514 577.896 472.626 575.611 479.524 565.465 C 485.245 557.044 505.469 512.907 505.469 508.844 C 505.469 505.876 480.473 484.035 473.001 480.466 C 469.458 478.782 465.622 479.463 455.29 483.594 C 442.351 488.767 441.856 488.807 430.307 485.599 C 423.838 483.794 418.531 481.214 418.531 479.864 C 418.531 478.501 421.258 466.31 424.6 452.77 C 427.928 439.229 434.986 408.579 440.265 384.68 C 445.559 360.766 453.138 328.633 457.134 313.261 C 461.131 297.889 468.536 269.124 473.602 249.328 C 478.668 229.531 483.253 212.622 483.788 211.754 C 484.817 210.083 501.365 155.012 505.375 139.894 C 506.765 134.654 509.719 129.775 512.687 127.823 C 519.958 123.065 522.805 112.291 521.241 95.449 C 520.065 82.804 520.72 78.58 526.882 59.038 C 539.273 19.753 539.942 15.984 535.45 11.011 C 532.777 8.07 529.569 6.908 525.238 7.322 C 518.287 8.004 516.683 11.573 504.466 53.491 C 496.847 71.683 497.315 77.578 481.154 77.671 C 476.917 78.153 474.377 80.438 471.196 86.6 C 465.529 97.601 458.845 98.577 450.812 89.568 C 445.425 83.513 444.195 83.085 434.344 83.914 C 416.513 87.135 407.998 95.877 390.18 78.66 C 386.718 76.107 379.3 71.188 376.84 66.376 C 374.394 61.564 366.588 51.566 359.503 44.174 C 337.595 21.277 341.177 18.309 359.65 18.309 C 382.762 15.957 377.428 6.573 380.757 -4.361 C 382.053 -8.598 391.998 -8.357 391.45 -11.044 C 390.394 -25.493 393.335 -34.409 400.125 -39.141 C 404.001 -50.516 400.446 -53.203 409.923 -56.317 C 418.531 -61.25 399.711 -80.605 385.007 -85.016 C 370.531 -89.36 368.406 -96.498 368.406 -97.607 C 368.406 -98.717 366.053 -102.807 363.179 -106.697 C 360.319 -110.586 364.596 -123.82 363.433 -128.126 C 362.284 -132.428 359.276 -137.268 356.75 -138.883 C 351.029 -142.552 335.59 -149.385 295.61 -160.851 L 264.8 -169.689 L 250.07 -166.147 C 217.08 -158.211 220.596 -160.648 214.541 -141.543 C 208.539 -122.603 205.424 -89.641 209.02 -82.931 C 210.998 -79.241 210.544 -78.974 203.366 -79.669 C 198.327 -80.137 192.592 -78.894 187.192 -76.14 C 179.68 -72.304 178.156 -70.125 172.248 -54.727 C 158.093 -17.834 109.05 128.398 107.152 139.386 C 106.123 145.294 107.352 149.304 113.822 161.12 C 121.227 174.647 122.564 175.931 133.685 180.382 C 140.248 183.015 150.153 185.702 155.7 186.357 L 165.792 187.546 L 160.98 194.002 C 158.333 197.545 153.962 206.968 151.249 214.935 C 147.065 227.286 146.303 233.728 146.103 258.417 C 157.344 287.436 154.671 315.547 153.521 347.827 L 151.743 374.548 C 149.525 395.48 144.552 410.852 132.428 444.71 C 126.761 457.742 124.702 466.11 122.778 484.035 C 121.428 496.56 118.741 514.605 116.803 524.135 C 114.677 537.168 111.697 543.21 107.967 546.845 C 104.425 550.174 85.177 578.244 85.417 586.678 C 85.671 595.674 86.099 595.5 96.793 605.82 C 104.639 613.412 115.172 619.614 116.789 619.614 C 118.407 619.614 122.029 623.13 124.836 627.434 L 129.956 635.253 L 121.027 639.878 C 112.739 644.182 111.656 644.303 106.029 641.389 C 101.605 639.103 93.291 638.247 75.312 638.247 C 52.642 638.247 49.434 637.753 35.591 632.032 C 16.283 624.079 12.232 624.145 5.884 632.553 C -6.827 649.395 -13.817 665.77 -15.284 682.157 C -16.67 697.623 -16.563 698.171 -11.778 700.202 C 1.589 705.843 38.34 714.812 47.282 714.598 C 52.803 714.465 78.747 709.88 104.933 704.4 Z M 221.037 630.976 C 215.45 629.278 208.245 627.902 205.023 627.902 C 200.385 627.902 198.594 626.511 196.362 621.165 C 192.512 611.968 188.275 608.934 177.608 607.731 L 168.505 606.715 L 164.95 591.945 C 162.985 583.831 160.619 575.718 159.67 573.926 C 156.903 568.66 175.122 503.724 184.599 485.104 C 186.631 481.094 192.125 467.661 196.803 455.229 C 201.495 442.772 208.526 428.509 212.482 423.43 C 220.328 413.365 221.932 409.127 227.052 385.107 C 232.826 367.303 241.341 351.824 247.597 334.019 C 254.895 310.494 267.74 305.187 269.839 305.281 C 302.681 307.486 322.17 314.624 330.016 317.605 C 332.596 318.942 334.975 320.252 335.296 320.532 C 335.63 320.8 334.053 324.168 331.794 328.004 C 325.111 339.38 305.02 389.492 302.387 394.277 L 294.153 404.021 L 286.146 413.846 C 273.234 434.217 272.806 444.763 284.395 457.328 C 293.886 467.62 301.852 472.58 309.244 472.78 C 312.305 472.874 317.772 477.097 324.603 484.69 L 335.189 496.453 L 327.704 507.721 C 320.566 518.454 319.416 519.243 303.657 524.282 C 294.541 527.196 285.933 530.324 284.502 531.246 C 282.671 532.436 281.923 540.282 281.923 558.354 L 281.923 583.778 L 269.331 587.587 C 256.833 591.37 256.699 591.49 249.388 606.007 C 243.533 617.636 232.96 634.211 231.476 634.09 C 231.329 634.077 226.624 632.673 221.037 630.976 Z M 389.231 471.256 C 388.135 469.92 383.657 468.222 379.273 467.487 C 369.101 465.762 367.122 463.276 357.605 440.178 L 349.772 421.171 L 354.985 412.242 C 357.846 407.323 363.914 396.79 368.459 388.823 C 372.99 380.843 382.534 365.485 389.645 354.658 C 412.115 320.492 422.675 298.905 422.621 287.222 C 422.581 275.927 416.379 260.074 411.246 258.11 C 366.588 239.155 349.438 226.791 313.655 212.556 C 305.876 210.577 298.725 208.305 297.762 207.503 C 296.8 206.714 300.69 199.189 306.41 190.794 C 313.415 180.529 316.021 170.383 320.218 161.976 C 324.563 153.314 324.87 153.087 329.789 150.079 C 333.291 147.94 336.78 148.061 340.67 146.778 C 346.217 144.946 352.432 146.163 362.832 148.622 C 370.13 150.333 381.559 151.763 388.215 151.777 C 398.655 151.803 401.475 152.712 408.546 158.3 C 416.285 164.435 417.475 164.729 429.572 163.606 C 447.216 161.949 449.088 160.933 454.688 149.865 C 458.377 142.594 461.746 139.199 468.122 136.325 C 483.44 129.414 483.44 129.347 461.893 209.762 C 459.915 217.167 454.461 238.126 449.796 256.345 C 445.118 274.551 439.45 294.12 437.178 299.814 C 428.743 320.933 406.461 409.528 397.438 457.849 C 394.805 471.925 392.332 481.228 391.945 478.554 C 391.544 475.881 390.327 472.593 389.231 471.256 Z" style="fill: url('#gradient-1-0');"/>
  </g>
</svg>